<?xml version="1.0" encoding="UTF-8"?>
<svg id="Camada_2" data-name="Camada 2" xmlns="http://www.w3.org/2000/svg" viewBox="0 0 278.97 197.28">
  <defs>
    <style>
      .cls-1 {
        fill: #497a55;
      }
    </style>
  </defs>
  <g id="icons">
    <path class="cls-1" d="M218.43,32.26c-10.11,2.42-39.53,11.98-56.96,42.38-8.51,14.87-15.27,37.63-11.76,54.46-.74,1.5-1.44,3.02-2.07,4.58-.07.18-.14.36-.21.55-2.14-6.44-4.54-12.8-7.24-19.03-4.44-10.29-9.6-20.23-15.4-29.73,1.46-15.34-5.7-34.7-13.93-47.32C93.32,11.26,65.56,4.39,56.38,2.3,30.13-3.65,8.58,3.43,0,6.78c4.48,18.54,11.1,32.25,15.88,40.79,7.6,13.58,32.13,57.41,72.21,61.32,9.07.88,16.56-.52,20.9-1.58-2.65-11.82-7.76-27.51-18.52-43.13-21.71-31.5-53.17-43.33-52.75-44.03.41-.69,30.41,10.19,55.75,38.64,8.01,8.99,14.04,18.03,18.61,26.24l-.04.03c1.86,3.4,3.63,6.85,5.31,10.33.76,1.64,1.46,3.22,2.09,4.72.03-.04.06-.07.08-.11,3.01,6.59,5.71,13.3,8.06,20.13,4.25,12.28,7.38,24.91,9.44,37.72-.05.69-.11,1.37-.16,2.06-1.62-.29-3.28-.44-4.98-.44-11.25,0-20.99,6.43-25.81,15.78-1.04-.14-2.11-.2-3.19-.2-12.57,0-23.09,8.89-25.58,20.72-.16.78.43,1.52,1.23,1.52h139.28c.78,0,1.38-.7,1.23-1.47h0c-2.53-12.84-14.3-21.98-27.35-21.28h-.16c-5.19-6.74-13.35-11.09-22.53-11.09-4.77,0-9.24,1.2-13.2,3.27-.14-.76-.28-1.52-.42-2.28-.11-1.38-.22-2.75-.31-4.13.01-6.49,1.06-14.04,4.24-21.87.67-1.64,1.43-3.22,2.25-4.79,7.29-11.38,15.41-22.22,24.36-32.38,15.68-17.88,33.85-33.7,53.62-46.81.28-.18.67-.13.88.13.22.28.18.7-.1.92-18.07,14.9-34.13,32.04-47.67,51.11-9.62,13.5-17.93,27.99-24.77,43.09,5.45.91,13.43,1.68,22.81.39,49.04-6.73,74.24-61.25,77.43-68.42,4.16-9.35,9.28-23.88,10.85-43.03-7.35-3.43-31.18-13.44-60.53-6.38Z"/>
  </g>
</svg>