<?xml version="1.0" encoding="UTF-8"?>
<svg id="Camada_2" data-name="Camada 2" xmlns="http://www.w3.org/2000/svg" viewBox="0 0 418.58 416.4">
  <defs>
    <style>
      .cls-1 {
        fill-rule: evenodd;
      }

      .cls-1, .cls-2 {
        fill: #13110c;
      }
    </style>
  </defs>
  <g id="Layer_1" data-name="Layer 1">
    <path class="cls-1" d="M377.95,174.25c18.75,0,34,15.25,34,34s-15.25,33.9-34,33.9-33.9-15.15-33.9-33.9,15.25-34,33.9-34h0Z"/>
    <path class="cls-2" d="M377.95,167.62c11.27,0,21.4,4.54,28.79,11.84,7.29,7.39,11.84,17.52,11.84,28.79s-4.54,21.31-11.84,28.69c-7.39,7.39-17.52,11.93-28.79,11.93s-21.31-4.55-28.69-11.93c-7.29-7.39-11.84-17.52-11.84-28.69s4.54-21.4,11.84-28.7c7.39-7.39,17.52-11.93,28.69-11.93h0ZM397.27,188.93c-4.93-4.92-11.74-7.96-19.32-7.96s-14.3,3.03-19.22,7.96c-4.92,4.92-7.95,11.74-7.95,19.32s3.03,14.3,7.95,19.22c4.92,4.92,11.74,7.95,19.22,7.95s14.39-3.03,19.32-7.95c4.92-4.92,7.95-11.74,7.95-19.22s-3.03-14.4-7.95-19.32h0Z"/>
    <path class="cls-2" d="M305.31,201.52c3.69,0,6.63,3.03,6.63,6.72s-2.94,6.63-6.63,6.63h-72.26c-3.69,0-6.72-2.93-6.72-6.63s3.03-6.72,6.72-6.72h72.26Z"/>
    <path class="cls-2" d="M204.17,369.14c3.69,0,6.72,2.93,6.72,6.63s-3.03,6.72-6.72,6.72h-100c-3.69,0-6.63-3.03-6.63-6.72v-26.61c0-3.69,2.94-6.63,6.63-6.63s6.72,2.94,6.72,6.63v19.98h93.28ZM204.17,34c3.69,0,6.72,2.94,6.72,6.63s-3.03,6.72-6.72,6.72h-93.28v19.89c0,3.69-3.03,6.72-6.72,6.72s-6.63-3.03-6.63-6.72v-26.61c0-3.69,2.94-6.63,6.63-6.63h100Z"/>
    <polygon class="cls-1" points="97.54 220.65 0 164.31 0 259.86 97.54 316.11 97.54 220.65"/>
    <polygon class="cls-1" points="208.34 164.31 110.89 220.65 110.89 316.11 208.34 259.86 208.34 164.31"/>
    <polygon class="cls-1" points="201.71 152.75 104.17 96.5 6.63 152.75 104.17 209.1 201.71 152.75"/>
    <path class="cls-1" d="M282.21,6.72c18.75,0,33.9,15.15,33.9,33.9s-15.15,33.9-33.9,33.9-34-15.15-34-33.9,15.25-33.9,34-33.9h0Z"/>
    <path class="cls-2" d="M282.21,0c11.17,0,21.31,4.55,28.69,11.93,7.39,7.39,11.93,17.52,11.93,28.69s-4.54,21.4-11.93,28.69c-7.39,7.39-17.52,11.93-28.69,11.93s-21.4-4.55-28.69-11.93c-7.39-7.29-11.93-17.43-11.93-28.69s4.54-21.31,11.93-28.69c7.29-7.39,17.42-11.93,28.69-11.93h0ZM301.43,21.4c-4.93-4.92-11.75-8.05-19.23-8.05s-14.39,3.13-19.32,8.05c-4.93,4.92-7.95,11.74-7.95,19.22s3.03,14.39,7.95,19.32c4.92,4.92,11.74,7.95,19.32,7.95s14.3-3.03,19.23-7.95c4.92-4.92,7.95-11.74,7.95-19.32s-3.03-14.3-7.95-19.22h0Z"/>
    <path class="cls-1" d="M282.21,341.87c18.75,0,33.9,15.15,33.9,33.9s-15.15,34-33.9,34-34-15.25-34-34,15.25-33.9,34-33.9h0Z"/>
    <path class="cls-2" d="M282.21,335.14c11.17,0,21.31,4.55,28.69,11.93,7.39,7.39,11.93,17.52,11.93,28.69s-4.54,21.4-11.93,28.79c-7.39,7.29-17.52,11.84-28.69,11.84s-21.4-4.54-28.69-11.84c-7.39-7.39-11.93-17.52-11.93-28.79s4.54-21.31,11.93-28.69c7.29-7.39,17.42-11.93,28.69-11.93h0ZM301.43,356.55c-4.93-4.92-11.75-7.95-19.23-7.95s-14.39,3.03-19.32,7.95c-4.93,4.92-7.95,11.74-7.95,19.22s3.03,14.4,7.95,19.32c4.92,4.92,11.74,7.95,19.32,7.95s14.3-3.03,19.23-7.95c4.92-4.92,7.95-11.74,7.95-19.32s-3.03-14.3-7.95-19.22h0Z"/>
    <path class="cls-2" d="M310.05,203.51c2.56,2.56,2.56,6.82,0,9.47-2.65,2.56-6.91,2.56-9.47,0l-24.81-24.81c-2.56-2.65-2.56-6.82,0-9.47,2.65-2.56,6.82-2.56,9.47,0l24.81,24.81Z"/>
    <path class="cls-2" d="M300.58,203.51c2.55-2.65,6.82-2.65,9.47,0,2.56,2.56,2.56,6.82,0,9.47l-24.81,24.72c-2.65,2.65-6.82,2.65-9.47,0-2.56-2.56-2.56-6.82,0-9.47l24.81-24.72Z"/>
    <path class="cls-2" d="M208.91,35.89c2.65,2.65,2.65,6.91,0,9.47-2.65,2.65-6.82,2.65-9.47,0l-24.72-24.81c-2.65-2.56-2.65-6.82,0-9.38,2.56-2.65,6.82-2.65,9.38,0l24.81,24.72Z"/>
    <path class="cls-2" d="M199.44,35.89c2.65-2.56,6.82-2.56,9.47,0,2.65,2.65,2.65,6.91,0,9.47l-24.81,24.81c-2.56,2.56-6.82,2.56-9.38,0-2.65-2.65-2.65-6.91,0-9.47l24.72-24.81Z"/>
    <path class="cls-2" d="M208.91,371.04c2.65,2.65,2.65,6.91,0,9.47-2.65,2.65-6.82,2.65-9.47,0l-24.72-24.72c-2.65-2.65-2.65-6.91,0-9.47,2.56-2.65,6.82-2.65,9.38,0l24.81,24.72Z"/>
    <path class="cls-2" d="M199.44,371.04c2.65-2.56,6.82-2.56,9.47,0,2.65,2.65,2.65,6.91,0,9.47l-24.81,24.81c-2.56,2.56-6.82,2.56-9.38,0-2.65-2.65-2.65-6.82,0-9.47l24.72-24.81Z"/>
  </g>
</svg>