<?xml version="1.0" encoding="UTF-8"?>
<!DOCTYPE svg PUBLIC "-//W3C//DTD SVG 1.1//EN" "http://www.w3.org/Graphics/SVG/1.1/DTD/svg11.dtd">
<!-- Creator: CorelDRAW -->
<svg xmlns="http://www.w3.org/2000/svg" xml:space="preserve" width="65px" height="65px" version="1.1" style="shape-rendering:geometricPrecision; text-rendering:geometricPrecision; image-rendering:optimizeQuality; fill-rule:evenodd; clip-rule:evenodd"
viewBox="0 0 65000 65000"
 xmlns:xlink="http://www.w3.org/1999/xlink">
 <defs>
  <style type="text/css">
   <![CDATA[
    .fil0 {fill:black}
   ]]>
  </style>
 </defs>
 <g id="Layer_x0020_1">
  <metadata id="CorelCorpID_0Corel-Layer"/>
  <path class="fil0" d="M15076 45736l-7323 7620 -261 240 -40 31c-859,694 -1469,1642 -1732,2716 -162,657 -199,1389 -27,2048 78,296 237,697 490,890 133,102 329,127 491,127l41565 0c162,0 357,-25 491,-127 253,-193 412,-594 490,-890 172,-659 135,-1391 -26,-2049 -264,-1073 -874,-2021 -1733,-2715l-40 -31 -262 -240 -8619 -8970c-3540,-2681 -5663,-1287 -12527,2252 -6864,3539 -7378,-2278 -10936,-902l-1 0zm44919 -39159l0 25504c0,3025 -2482,5508 -5507,5508 -3025,0 -5508,-2483 -5508,-5508l0 -25504c0,-133 -109,-242 -242,-242l-1732 0c-133,0 -243,109 -243,242l0 25504c0,4248 3476,7725 7725,7725l0 0c4249,0 7725,-3476 7725,-7725l0 -25504c0,-133 -110,-242 -243,-242l-1732 0c-133,0 -243,110 -243,242zm-9682 11922l0 13393c0,2287 1887,4174 4175,4174 2288,0 4175,-1887 4175,-4174l0 -13393 -8350 0zm3893 3478c775,0 1402,628 1402,1402 0,775 -627,1402 -1402,1402 -774,0 -1402,-627 -1402,-1402 0,-774 628,-1402 1402,-1402zm-8056 -20977l16676 0c646,0 1174,528 1174,1174l0 1669c0,646 -528,1175 -1174,1175l-16676 0c-646,0 -1174,-529 -1174,-1175l0 -1669c0,-646 528,-1174 1174,-1174zm-7161 35798l12077 12567c1886,1562 3044,3591 3549,5644 402,1637 391,3306 4,4785 -415,1589 -1262,2976 -2499,3923 -1055,808 -2359,1283 -3881,1283l-20783 0 -20782 0c-1522,0 -2826,-475 -3881,-1283 -1238,-947 -2084,-2334 -2500,-3923 -386,-1479 -397,-3148 5,-4785 505,-2053 1663,-4082 3548,-5644l12085 -12575 0 -19518c0,-243 182,-343 403,-343l3218 0c189,0 343,155 343,343l1 20320 -552 1376 -12718 13234 -186 171c-1219,983 -1965,2276 -2286,3585 -245,994 -244,1985 -21,2841 195,746 559,1372 1070,1762 377,289 869,459 1471,459l20782 0 20783 0c602,0 1094,-170 1471,-459 511,-390 875,-1016 1070,-1762 223,-856 224,-1847 -21,-2841 -321,-1309 -1067,-2601 -2286,-3585l-186 -171 -12718 -13234 -560 -1376 0 -20320c0,-189 154,-343 344,-343l3226 0c223,0 410,94 410,342l0 19527zm-24358 -26711l25651 0c644,0 1171,527 1171,1171l0 2543c0,644 -527,1171 -1171,1171l-25651 0c-644,0 -1171,-527 -1171,-1171l0 -2543c0,-644 527,-1171 1171,-1171zm10946 24272c1804,0 3267,1464 3267,3268 0,1805 -1463,3268 -3267,3268 -1805,0 -3268,-1463 -3268,-3268 0,-1804 1463,-3268 3268,-3268zm3428 -10204c1303,0 2359,1057 2359,2360 0,1303 -1056,2359 -2359,2359 -1303,0 -2359,-1056 -2359,-2359 0,-1303 1056,-2360 2359,-2360zm23553 -14381c533,0 966,433 966,967 0,533 -433,966 -966,966 -534,0 -967,-433 -967,-966 0,-534 433,-967 967,-967zm3505 3525c795,0 1440,644 1440,1440 0,795 -645,1440 -1440,1440 -795,0 -1440,-645 -1440,-1440 0,-796 645,-1440 1440,-1440z"/>
 </g>
</svg>
