<?xml version="1.0" encoding="UTF-8"?>
<svg id="Camada_2" data-name="Camada 2" xmlns="http://www.w3.org/2000/svg" viewBox="0 0 675 639.9">
  <defs>
    <style>
      .cls-1 {
        fill: #1d1d1b;
      }
    </style>
  </defs>
  <g id="Layer_1" data-name="Layer 1">
    <path d="M83.62,232.11h205.49c7.61,0,13.77-6.17,13.77-13.77s-6.17-13.77-13.77-13.77H83.62c-7.61,0-13.77,6.17-13.77,13.77s6.17,13.77,13.77,13.77Z"/>
    <path d="M48.69,312.3h216.33c7.61,0,13.77-6.17,13.77-13.77s-6.17-13.77-13.77-13.77H48.69c-7.61,0-13.77,6.17-13.77,13.77s6.17,13.77,13.77,13.77Z"/>
    <path d="M271.37,378.85c0-7.61-6.17-13.77-13.77-13.77H13.77c-7.61,0-13.77,6.17-13.77,13.77s6.17,13.77,13.77,13.77h243.83c7.61,0,13.77-6.17,13.77-13.77Z"/>
    <path d="M278.8,459.17c0-7.61-6.17-13.77-13.77-13.77H48.69c-7.61,0-13.77,6.17-13.77,13.77s6.17,13.77,13.77,13.77h216.33c7.61,0,13.77-6.17,13.77-13.77Z"/>
    <path d="M302.89,539.49c0-7.61-6.17-13.77-13.77-13.77H83.62c-7.61,0-13.77,6.17-13.77,13.77s6.17,13.77,13.77,13.77h205.49c7.61,0,13.77-6.17,13.77-13.77Z"/>
    <path d="M626.07,226.01c-18.84-26.34-42.42-48.93-69.64-66.67l-.11-.11c-33.72-22.15-72.84-36.69-114.93-41.1v-38.35h35.04c6.39,0,11.57-5.18,11.57-11.57V11.68c0-6.39-5.18-11.68-11.57-11.68h-126.39c-6.39,0-11.57,5.29-11.57,11.68v56.53c0,6.39,5.18,11.57,11.57,11.57h35.15v38.24c-50.91,5.4-97.52,25.57-135.54,56.2h39.45c13.33,0,25.34,5.95,33.39,15.32,27.44-13.33,58.29-20.83,90.8-20.83,2.42,0,4.96,0,7.38.11,112.07,3.97,202.1,96.31,202.1,209.37s-94,209.48-209.48,209.48c-32.18,0-62.81-7.27-90.03-20.39-8.04,10.03-20.39,16.31-34.16,16.31h-37.69c44.52,35.26,100.72,56.31,161.87,56.31,144.35,0,261.71-117.36,261.71-261.71,0-56.64-18.07-109.31-48.93-152.18Z"/>
    <path d="M641.83,210.25l24.35-24.35c4.85-4.85,4.85-12.67,0-17.52l-50.8-50.8c-4.85-4.74-12.67-4.74-17.52,0l-25.68,25.78c27,18.18,50.36,40.55,69.64,66.89Z"/>
    <path class="cls-1" d="M481.44,346.09c8.05,8.3,44.19,45.6,38.92,94.67-.71,6.71-3.06,28.48-15.87,44.61-21.05-16.62-40.82-34.84-59.12-54.48-24.48-26.22-46.25-54.99-65.05-85.61-.38-.65-1.23-.88-1.9-.54-.7.39-.97,1.25-.61,1.96,29.47,55.86,68.78,106.54,115.61,148.98-.17.12-.35.22-.52.34-33.96,22.11-89.39-5.67-116.38-30.07-49.19-44.48-59.22-127.75-32.21-212.99,12,9.76,30.77,24.38,55.02,40.34,49,32.25,60.99,30.99,82.1,52.79Z"/>
  </g>
</svg>