<?xml version="1.0" encoding="UTF-8"?>
<svg id="Camada_2" data-name="Camada 2" xmlns="http://www.w3.org/2000/svg" viewBox="0 0 239.08 202.25">
  <defs>
    <style>
      .cls-1 {
        fill: none;
      }

      .cls-1, .cls-2 {
        stroke: #000;
        stroke-linecap: round;
        stroke-linejoin: round;
        stroke-width: 12px;
      }
    </style>
  </defs>
  <g id="_Ñëîé_2" data-name="Ñëîé 2">
    <line class="cls-1" x1="21.26" y1="196.25" x2="225.13" y2="196.25"/>
    <polyline class="cls-1" points="191.55 124.59 220.92 124.59 220.92 110.68"/>
    <polyline class="cls-1" points="48.8 155.51 22.48 155.51 22.48 141.61"/>
    <circle class="cls-1" cx="18.66" cy="126.31" r="12.66"/>
    <circle class="cls-1" cx="44.42" cy="86.38" r="12.16"/>
    <circle class="cls-1" cx="200.09" cy="45.2" r="12.16"/>
    <circle class="cls-1" cx="220.92" cy="97.79" r="12.16" transform="translate(-12.81 36.65) rotate(-9.22)"/>
    <polyline class="cls-1" points="163.5 31.13 168.33 31.13 176.97 45.2 187.93 45.2"/>
    <g>
      <path class="cls-2" d="M123.2,174.1c-5.29,2.52-15.22,5.9-26.55,2.87-14.39-3.83-20.84-15.28-23.12-19.32-6.41-11.4-5.6-22.44-5.07-26.66,4.93-1.21,15.41-3.1,27.61.34,5.15,1.46,16.06,4.54,23.76,14.9,1.36,1.84,2.47,3.69,3.37,5.53"/>
      <path class="cls-2" d="M173.17,111.52c-1.96,4.22-7.48,16.14-21.54,21.09-12.37,4.37-23.65.58-28.44-1.51v-21.54c.75-1.91,1.72-3.84,2.93-5.77,6.86-10.96,17.49-14.88,22.51-16.74,11.89-4.39,22.49-3.33,27.49-2.52.88,4.17,2.55,15.11-2.94,26.98Z"/>
      <path class="cls-2" d="M124.12,77.1c2.19-1.2,15.18-8.57,19.16-23.96,3.73-14.41-3.07-25.66-5.48-29.64-6.77-11.19-16.78-15.9-20.73-17.51-3.48,3.7-10.28,11.9-13.27,24.21-1.27,5.21-3.94,16.22,1.31,28.03,5.38,12.1,15.66,17.34,19,18.87Z"/>
      <polyline class="cls-1" points="123.2 195.35 123.2 174.1 123.2 151.76 123.2 131.1 123.2 109.56 123.2 77.1"/>
    </g>
    <polyline class="cls-1" points="100.94 104.61 82.71 86.38 56.58 86.38"/>
  </g>
</svg>