<?xml version="1.0" encoding="UTF-8"?>
<svg id="Camada_2" data-name="Camada 2" xmlns="http://www.w3.org/2000/svg" viewBox="0 0 575.58 661.02">
  <defs>
    <style>
      .cls-1 {
        fill: none;
        stroke: #1a1c20;
        stroke-linecap: round;
        stroke-linejoin: round;
        stroke-width: 25px;
      }

      .cls-2 {
        fill: #1a1c20;
      }
    </style>
  </defs>
  <g id="Layer_1" data-name="Layer 1">
    <g>
      <path class="cls-2" d="M290.25,217.93c7.52,0,13.49,5.97,13.49,13.49v3.63c14.01,2.08,26.46,6.23,37.61,12.45,4.93,2.85,9.34,7.78,9.34,15.56,0,9.86-7.78,17.38-17.64,17.38-3.11,0-6.23-.78-9.08-2.34-7.26-3.89-14.53-7-21.53-8.82v39.43c39.43,10.64,56.29,26.72,56.29,55.77s-22.31,47.73-54.99,51.36v13.75c0,7.52-5.97,13.49-13.49,13.49s-13.49-5.97-13.49-13.49v-14.01c-18.42-2.33-35.8-8.82-51.1-18.16-5.45-3.37-8.82-8.56-8.82-15.56,0-10.12,7.78-17.64,17.9-17.64,3.37,0,7,1.3,10.12,3.37,10.89,7.01,21.27,11.93,33.2,14.53v-41.25c-37.35-10.12-55.77-24.38-55.77-55.25,0-28.53,21.79-47.73,54.47-51.1v-3.11c0-7.51,5.97-13.48,13.49-13.48ZM278.06,301.98v-35.02c-12.45,1.82-17.9,8.04-17.9,16.34s3.63,13.49,17.9,18.68ZM302.45,347.37v36.06c12.19-1.82,18.42-7.52,18.42-16.86-.01-8.56-4.42-14.27-18.42-19.2Z"/>
      <g>
        <g>
          <path class="cls-1" d="M145.87,94.89C61.37,145.75,13.99,234.77,12.53,326.61c-.04,2.83-.04,5.66,0,8.47.69,46.98,13.44,94.39,39.41,137.56,42.04,69.87,110.2,114.36,184.47,128.48"/>
          <path class="cls-1" d="M339.14,60.31c74.26,14.13,142.43,58.61,184.48,128.5,25.9,43.03,38.65,90.3,39.41,137.14.06,2.83.06,5.64.01,8.47-.03,1.44-.06,2.87-.1,4.31-2.72,90.47-49.93,177.73-133.24,227.85"/>
          <polygon class="cls-1" points="249.11 59.21 341.87 12.5 335.94 116.19 249.11 59.21"/>
        </g>
        <polygon class="cls-1" points="326.47 601.81 233.71 648.52 239.64 544.83 326.47 601.81"/>
      </g>
      <circle class="cls-1" cx="287.79" cy="330.51" r="160.54"/>
    </g>
  </g>
</svg>