<?xml version="1.0" encoding="UTF-8"?>
<svg id="Layer_1" data-name="Layer 1" xmlns="http://www.w3.org/2000/svg" viewBox="0 0 64 64">
  <path d="M35.7,25.31c3.81-5.36,9.6-9.08,16.11-10.29,.54-.11,1.07,.26,1.17,.8,.1,.54-.26,1.06-.8,1.16-6.3,1.18-11.87,4.9-15.39,10.26-.11,.17-.23,.35-.34,.53-.26,.42-.51,.85-.75,1.28,1.15,1.28,3.33,3.02,6.66,3.02,1.22,0,2.59-.24,4.12-.81,4.88-1.83,7.55-5.61,9.9-8.94,1.61-2.28,3.13-4.44,5.11-5.56,.27-.15,.46-.42,.5-.73s-.06-.62-.28-.84c-.33-.33-8.17-8.08-19.32-4.67-4.12,1.26-7.22,4.3-8.5,8.34-.98,3.07-.77,6.28,.52,8.41,.11-.19,.22-.37,.34-.56,.3-.48,.61-.94,.95-1.4Z"/>
  <path d="M28.3,29.05c1.34,2.47,2.2,5.14,2.58,7.96-11.44,.39-21.51,6.85-24.74,15.99-.11,.3-.07,.64,.12,.91,.19,.26,.49,.42,.82,.42H56.92c.33,0,.63-.16,.82-.42,.19-.27,.23-.61,.12-.91-3.22-9.13-13.3-15.59-24.74-15.99,.38-2.82,1.24-5.49,2.58-7.96-.51-.58-.82-1.06-.94-1.25-.13-.17-.25-.34-.35-.53-1.02,1.74-1.83,3.57-2.41,5.47-.58-1.9-1.39-3.73-2.41-5.47-.1,.19-.22,.36-.35,.53-.12,.19-.43,.67-.94,1.25Z"/>
  <path d="M2.51,16.76c1.98,1.12,3.5,3.28,5.11,5.56,2.35,3.33,5.02,7.11,9.9,8.94,1.53,.57,2.9,.81,4.12,.81,3.32,0,5.5-1.74,6.66-3.02-.24-.43-.49-.86-.75-1.28-.11-.18-.23-.36-.34-.53-3.52-5.36-9.09-9.08-15.39-10.26-.54-.1-.9-.62-.8-1.16,.1-.54,.62-.91,1.17-.8,6.51,1.21,12.3,4.93,16.11,10.29,.34,.46,.65,.92,.95,1.4,.12,.19,.23,.37,.34,.56,1.29-2.13,1.5-5.34,.52-8.41-1.28-4.04-4.38-7.08-8.5-8.34C10.47,7.11,2.62,14.86,2.29,15.19c-.22,.22-.32,.53-.28,.84s.23,.58,.5,.73Z"/>
</svg>