<?xml version="1.0" encoding="UTF-8"?><svg id="Layer_1" xmlns="http://www.w3.org/2000/svg" viewBox="0 0 512 512"><circle cx="336" cy="88" r="32"/><path d="m511.218,491.812l-75.152-157.242c-7.993-17.315-20.434-32.089-36.066-43.071v-35.5c0-32.754-24.73-59.836-56.5-63.562-1.621-12.141-7.133-23.309-15.894-31.992-10.512-10.605-24.578-16.445-39.605-16.445h-8.805c-1.543-7.582-5.285-14.602-10.938-20.336-7.629-7.523-17.664-11.664-28.258-11.664h-16c-19.316,0-35.48,13.766-39.195,32h-8.805c-28.312,0-51.785,21.121-55.492,48.43-14.262,1.652-27.465,8.008-37.766,18.312-8.935,8.935-14.878,20.053-17.383,32.149-18.667-8.109-40.326-3.618-54.457,12.925C3.871,263.973,0,274.406,0,285.199c0,12.605,5.047,24.281,14.145,32.812l67.844,65.051c27.59,26.398,63.816,40.938,102.023,40.938l107.043-.152,41.797,83.727c1.398,2.805,4.227,4.43,7.164,4.426,1.199,0,2.418-.27,3.566-.844,3.953-1.973,5.559-6.777,3.582-10.73l-44.008-88.16c-1.352-2.711-4.125-4.426-7.156-4.426h-.012l-111.988.16c-34.051,0-66.352-12.961-90.945-36.492l-67.902-65.105c-5.902-5.535-9.152-13.066-9.152-21.203,0-6.961,2.492-13.684,7.043-18.965,11.363-13.285,30.027-15.098,43.602-4.277l63.699,63.699c1.5,1.5,3.535,2.344,5.656,2.344h76.125c7.667,8.937,24.801,23.922,53.727,23.922l50.719-.082c4.418-.008,7.996-3.594,7.988-8.012-.008-4.414-3.586-7.988-8-7.988h-.012l-50.707.082c-25.113,0-38.672-14.324-43.68-20.93-6.371-7.938-10.367-17.176-11.766-27.074l127.445-.078c17.742,0,34.977,5.039,49.832,14.57,14.82,9.527,26.527,22.965,33.91,38.961l75.199,157.34c1.375,2.875,5.84,6.136,10.668,3.77,3.988-1.906,5.676-6.684,3.77-10.668Zm-335.219-231.812c-4.418,0-8-3.582-8-8,0-6.617-5.383-12-12-12s-12,5.383-12,12,5.383,12,12,12c4.418,0,8,3.582,8,8s-3.582,8-8,8c-15.438,0-28-12.562-28-28s12.562-28,28-28,28,12.562,28,28c0,4.418-3.582,8-8,8Zm20-60c-6.627,0-12-5.373-12-12s5.373-12,12-12,12,5.373,12,12-5.373,12-12,12Zm84,8c-4.418,0-8-3.582-8-8s-3.59-8-8-8-8,3.59-8,8-3.582,8-8,8-8-3.582-8-8c0-13.234,10.766-24,24-24s24,10.766,24,24c0,4.418-3.582,8-8,8Zm36,40c-6.627,0-12-5.373-12-12s5.373-12,12-12,12,5.373,12,12-5.373,12-12,12Z"/><circle cx="136" cy="72" r="32"/><circle cx="236" cy="28" r="28"/></svg>