<svg id="Layer_3" data-name="Layer 3" xmlns="http://www.w3.org/2000/svg" viewBox="0 0 100 100"><path d="M84.66,58.51c-.34-.12-.68-.22-1-.32V36.43A9.62,9.62,0,0,0,74,26.82H20.71a9.62,9.62,0,0,0-9.61,9.61V63.67a9.62,9.62,0,0,0,9.61,9.62H61.58c0,.49-.07,1-.07,1.47A17.28,17.28,0,1,0,84.66,58.51ZM15.1,38.83H79.64v2.81H15.1Zm5.61-8H74a5.6,5.6,0,0,1,5.37,4H15.34A5.61,5.61,0,0,1,20.71,30.82ZM15.1,63.67v-18H79.64V57.51c-.28,0-.56,0-.85,0-.49,0-1,0-1.45.06l-.48.05c-.31,0-.63.07-.94.12l-.55.11-.84.19c-.19,0-.38.1-.57.16l-.78.23-.57.21c-.24.1-.49.19-.73.3l-.55.25c-.24.11-.47.23-.69.35s-.37.2-.54.3-.44.26-.65.4l-.52.34c-.21.14-.41.29-.61.45s-.33.25-.49.38l-.58.49c-.15.14-.31.28-.45.43s-.36.35-.54.54l-.42.45c-.17.19-.33.4-.49.6s-.26.31-.38.47l-.46.66c-.11.17-.23.32-.33.49s-.3.51-.44.76-.18.3-.26.45c-.21.4-.4.81-.58,1.22a1.8,1.8,0,0,1-.08.21c-.15.37-.3.75-.42,1.13H20.71A5.62,5.62,0,0,1,15.1,63.67ZM78.79,88a13.26,13.26,0,0,1-11.68-7,13,13,0,0,1-1.6-6.31A13.29,13.29,0,0,1,78.79,61.49a12.64,12.64,0,0,1,2.48.23,12.51,12.51,0,0,1,2,.56A13.27,13.27,0,0,1,78.79,88Z"/><path d="M86.12,68.25a2,2,0,0,0-2.77.59l-4.92,7.6-2.55-2.55a2,2,0,0,0-2.83,2.83l4.3,4.3a2,2,0,0,0,1.41.58H79a2,2,0,0,0,1.47-.9L86.71,71A2,2,0,0,0,86.12,68.25Z"/><path d="M28.49,61.89h-9a2,2,0,1,0,0,4h9a2,2,0,0,0,0-4Z"/><path d="M38.3,61.89H33.78a2,2,0,0,0,0,4H38.3a2,2,0,0,0,0-4Z"/></svg>