<?xml version="1.0" encoding="UTF-8"?>
<svg id="Camada_2" data-name="Camada 2" xmlns="http://www.w3.org/2000/svg" viewBox="0 0 265.03 279.89">
  <defs>
    <style>
      .cls-1 {
        fill: #497a55;
      }
    </style>
  </defs>
  <g id="icons">
    <g>
      <rect class="cls-1" x="125.55" y="0" width="13.93" height="35.92" rx="6.97" ry="6.97"/>
      <rect class="cls-1" x="44.54" y="33.55" width="13.93" height="35.92" rx="6.97" ry="6.97" transform="translate(-21.34 51.51) rotate(-45)"/>
      <rect class="cls-1" x="10.99" y="114.56" width="13.93" height="35.92" rx="6.97" ry="6.97" transform="translate(-114.56 150.47) rotate(-90)"/>
      <rect class="cls-1" x="44.54" y="195.56" width="13.93" height="35.92" rx="6.97" ry="6.97" transform="translate(-63.05 400.93) rotate(-135)"/>
      <rect class="cls-1" x="206.56" y="195.56" width="13.93" height="35.92" rx="6.97" ry="6.97" transform="translate(515.49 213.52) rotate(135)"/>
      <rect class="cls-1" x="240.11" y="114.56" width="13.93" height="35.92" rx="6.97" ry="6.97" transform="translate(379.59 -114.56) rotate(90)"/>
      <rect class="cls-1" x="206.56" y="33.55" width="13.93" height="35.92" rx="6.97" ry="6.97" transform="translate(98.96 -135.9) rotate(45)"/>
      <g>
        <path class="cls-1" d="M130.04,40.68c-47.88,1.16-86.91,40.2-88.07,88.08-.63,26.38,10.04,50.25,27.51,67.14,10.82,10.47,17.21,24.69,17.21,39.74v.76h91.2v-.76c0-14.71,5.83-28.95,16.52-39.08,17.37-16.45,28.21-39.75,28.21-65.56,0-50.64-41.65-91.55-92.58-90.32ZM156.89,189.18c-4.92.68-9.11.27-11.98-.21,3.59-7.93,7.96-15.55,13.01-22.63,7.11-10.02,15.55-19.03,25.04-26.86.15-.11.18-.33.05-.48-.11-.13-.31-.16-.46-.07-10.38,6.89-19.93,15.2-28.17,24.6-4.69,5.33-8.96,11.03-12.79,17.01-.43.82-.83,1.65-1.19,2.51-1.37,3.36-1.98,6.62-2.15,9.55-.02.16-.02.31-.02.46-.01.09-.01.18-.02.27-.01.21-.02.42-.02.62h-.01c-.1,2.15-.14,4.46-.1,6.93.06,3.03.25,5.82.5,8.35-3.33.03-6.66.05-10,.07.2-3.05.31-6.36.26-9.89-.02-1.9-.08-3.71-.18-5.46h-.02c0-.05,0-.1.01-.15v-.02c.01-.17.02-.36.04-.54-.03-.21-.07-.43-.11-.64-1.08-6.5-2.69-12.92-4.85-19.17-1.23-3.59-2.65-7.11-4.23-10.57-.02.02-.04.03-.05.06-.33-.79-.7-1.62-1.09-2.48-.89-1.84-1.82-3.64-2.79-5.43l.02-.02c-2.4-4.3-5.57-9.06-9.77-13.78-13.32-14.94-29.08-20.66-29.29-20.29-.22.36,16.31,6.58,27.71,23.12,5.66,8.21,8.34,16.46,9.73,22.66-2.28.56-6.21,1.3-10.98.83-21.06-2.05-33.94-25.07-37.93-32.21-2.51-4.49-5.99-11.69-8.34-21.43,4.51-1.76,15.82-5.48,29.61-2.35,4.83,1.09,19.41,4.71,28.63,18.83,4.32,6.62,8.08,16.79,7.32,24.85,3.04,5,5.75,10.22,8.09,15.62,1.41,3.28,2.67,6.61,3.8,10,.04-.1.07-.19.11-.29.33-.82.7-1.62,1.09-2.4-1.85-8.84,1.7-20.8,6.17-28.61,9.16-15.97,24.62-20.99,29.93-22.26,15.42-3.71,27.94,1.55,31.8,3.35-.82,10.06-3.52,17.69-5.7,22.61-1.68,3.76-14.91,32.4-40.68,35.94Z"/>
        <path class="cls-1" d="M86.99,262.55c0,5.54,4.49,10.03,10.03,10.03h20.57v1.17c0,3.39,2.75,6.13,6.13,6.13h16.52c3.39,0,6.13-2.75,6.13-6.13v-1.17h21.36c5.54,0,10.03-4.49,10.03-10.03v-22.25h-90.78v22.25Z"/>
      </g>
    </g>
  </g>
</svg>