<?xml version="1.0" encoding="UTF-8"?>
<svg id="Camada_2" data-name="Camada 2" xmlns="http://www.w3.org/2000/svg" viewBox="0 0 279.96 213.23">
  <defs>
    <style>
      .cls-1 {
        fill: #497a55;
      }
    </style>
  </defs>
  <g id="icons">
    <g>
      <path class="cls-1" d="M30.06,121.07c-.82-3.43-4.27-5.55-7.7-4.73l-20.53,4.91c-1.28.3-2.07,1.59-1.76,2.87l20.86,87.28c.3,1.28,1.59,2.07,2.87,1.76l20.53-4.9c3.43-.82,5.54-4.27,4.72-7.7l-18.99-79.49Z"/>
      <path class="cls-1" d="M279.5,131.45c-4.96-11.14-17.92-16.29-29.17-11.57-6.65,2.79-13.31,5.57-19.96,8.36-.98.4-1.95.81-2.93,1.22-2.38.99-4.77,1.99-7.16,2.99-.89.38-1.78.74-2.67,1.12-3.22,1.33-6.43,2.7-9.67,4.05-.31.13-.62.26-.94.39-2.8,1.17-5.61,2.33-8.41,3.51-2.55,1.07-5.08,2.13-7.63,3.19-4.19,1.76-8.38,3.52-12.58,5.28,0,.08-.01.16-.02.24-.61,5.55-5.64,9.72-11.72,9.72-.14,0-.26,0-.4-.01-.34,0-.7-.02-1.05-.06l-54.39-5.63c-.82-.09-1.46-.81-1.38-1.7.06-.86.9-1.46,1.75-1.36,17.91,1.84,35.79,3.69,53.68,5.53.22.02.45.06.67.08,4.32.48,8.22-1.85,9.43-5.39.16-.48.28-1,.34-1.53.19-1.75.18-3.48-.02-5.17-.07-.63-.17-1.27-.29-1.89-.33-1.66-.83-3.26-1.51-4.81-.05-.13-.1-.26-.16-.39-3.12-6.92-9.46-12.54-17.51-15.19-2.13-.71-4.39-1.2-6.73-1.46-10.74-1.45-21.5-2.89-32.25-4.35-1.3-.17-2.6-.35-3.91-.53-1.78-.24-3.56-.47-5.35-.72-2.45-.33-4.9-.67-7.37-1-5.67-.76-11.32-1.52-16.98-2.3-2.86-.37-5.7-.76-8.56-1.16-2.64-.35-5.33-.21-7.92.41l-6.21,1.49-3.16.75h0s-19.41,4.65-19.41,4.65c-1.4.34-2.26,1.74-1.93,3.14l18.54,77.49c.32,1.41,1.73,2.28,3.14,1.94l19.37-4.63c.67-.08,1.77-.21,2.44-.29h.02c.6-.04,1.17-.08,1.77-.11,22.33,2.36,44.66,4.75,66.98,7.12,4.85.51,9.74-.49,13.99-2.86,5.76-3.21,11.5-6.4,17.24-9.61,32.55-17.37,65.1-34.75,97.66-52.12,1.76-.95,2.79-2.78,2.79-4.67,0-.72-.15-1.47-.46-2.16Z"/>
      <path class="cls-1" d="M143.14,76.18c6.35.62,11.59-.36,14.63-1.11-1.85-8.26-5.43-19.24-12.96-30.17-15.19-22.04-37.2-30.32-36.91-30.81.29-.48,21.28,7.13,39,27.03,5.61,6.29,9.83,12.62,13.02,18.36l-.03.02c1.3,2.38,2.54,4.79,3.71,7.23.53,1.14,1.02,2.25,1.46,3.3.02-.03.04-.05.06-.08,2.11,4.61,4,9.3,5.64,14.08,2.98,8.59,5.17,17.43,6.61,26.39-.04.48-.08.96-.11,1.44-1.14-.2-2.3-.31-3.49-.31-5.94,0-11.27,2.56-14.98,6.63,8.53,3.2,15.47,9.4,19.07,17.38.36.8.69,1.62.98,2.45h15.19c.24-.1.47-.2.71-.3l1.91-.8c1.57-.66,7.81-3.25,9.36-3.9l3.52-1.48c2.06-.87,4.11-1.73,6.16-2.58,0,0,4.55-1.9,10.28-4.31-2.78-1.64-6-2.57-9.37-2.57-.32,0-.65.01-.98.03h-.11c-3.64-4.72-9.34-7.76-15.77-7.76-3.33,0-6.46.84-9.23,2.29-.1-.53-.19-1.06-.3-1.59-.07-.97-.15-1.93-.21-2.9.01-4.54.74-9.82,2.97-15.3.47-1.14,1-2.25,1.57-3.35,5.11-7.96,10.79-15.54,17.05-22.65,10.97-12.51,23.68-23.57,37.51-32.75.19-.13.47-.09.61.09.16.19.13.49-.06.64-12.65,10.42-23.88,22.42-33.35,35.76-6.73,9.44-12.55,19.58-17.33,30.15,3.81.63,9.39,1.17,15.96.27,34.3-4.71,51.93-42.85,54.17-47.86,2.91-6.54,6.49-16.71,7.59-30.11-5.14-2.4-21.81-9.4-42.35-4.47-7.07,1.7-27.66,8.39-39.85,29.65-5.96,10.4-10.69,26.33-8.23,38.1-.52,1.05-1.01,2.12-1.45,3.2l-.15.39c-1.5-4.51-3.17-8.96-5.06-13.31-3.11-7.2-6.72-14.16-10.78-20.81,1.02-10.73-3.98-24.28-9.74-33.1C146.81,7.87,127.39,3.06,120.96,1.61c-18.36-4.17-33.44.79-39.44,3.13,3.13,12.97,7.77,22.57,11.11,28.54,5.31,9.5,22.47,40.17,50.51,42.9Z"/>
    </g>
  </g>
</svg>